PathFileType	4	(X/Y/Z)	D:\TRACE\v60_Jaco2_6-2-23\JustBodyDRS_Motion2_8-v60.trc
DataRate	CameraRate	NumFrames	NumMarkers	Units	OrigDataRate	OrigDataStartFrame	OrigNumFrames
100.00	100.00	      31	9	mm	100.00	1729	      6914
Frame#	Time	front left toe			Front right toe			aft left toe			aft right toe			Arm			FL body			FR body			AL Body			AR Body			
		X1	Y1	Z1	X2	Y2	Z2	X3	Y3	Z3	X4	Y4	Z4	X5	Y5	Z5	X6	Y6	Z6	X7	Y7	Z7	X8	Y8	Z8	X9	Y9	Z9	

1729	17.280	-243.33862	110.22617	-226.65987	179.29213	14.71574	-269.07550	-126.08203	13.62110	406.05368	186.29797	88.28225	364.10889	-168.58289	1218.76074	-333.42538	-131.84665	587.89191	-362.52365	27.77616	591.22498	-378.97928	-35.15230	540.74390	576.92114	119.95499	537.45715	561.44263	
1730	17.290	-244.31424	101.33909	-230.33145	177.94223	13.99223	-269.34036	-127.42645	14.49028	405.53552	184.58833	77.49418	361.87146	-168.86621	1218.25159	-335.45374	-133.09377	587.58856	-363.61908	26.66884	590.43060	-379.92517	-37.40264	541.58075	576.01483	117.34612	537.80511	559.92926	
1731	17.300	-245.29395	91.97377	-233.24098	176.77348	13.37781	-269.67911	-128.59920	15.13702	405.12399	182.67841	67.43993	359.47882	-169.09694	1217.58643	-337.32178	-133.77338	586.81396	-364.76871	25.61267	589.74780	-380.98022	-40.05487	542.25537	574.89282	114.18998	538.65308	560.07483	
1732	17.310	-246.10629	82.67484	-235.65050	175.61633	12.82117	-269.89423	-129.25833	15.41261	404.96878	180.30760	58.87784	357.92004	-169.39464	1217.23267	-339.55426	-135.06857	586.04327	-365.84631	24.50388	588.86853	-381.70239	-42.03237	543.04065	574.80090	112.67951	539.07202	559.19202	
1733	17.320	-247.05974	73.10149	-236.84174	174.43129	11.96810	-270.17743	-130.34116	16.19038	404.46170	176.44185	48.97970	356.93530	-169.65186	1216.90259	-341.61853	-136.48315	585.48163	-367.26462	23.24313	588.10406	-383.06097	-44.83353	543.79602	573.27380	110.97706	539.99542	558.96265	
1734	17.330	-249.15910	64.35773	-237.85127	173.51175	11.44676	-270.45004	-131.45663	17.26911	404.15466	174.12015	41.30268	356.23450	-170.19766	1216.62158	-343.88354	-137.48070	584.72687	-368.44714	22.02928	587.34741	-383.95410	-47.07260	544.52814	572.20026	107.35259	540.54199	557.44348	
1735	17.340	-251.17632	55.56019	-238.03804	172.72542	10.90543	-270.82791	-132.03616	17.81878	403.93884	171.86234	33.75283	355.63345	-170.79462	1215.98962	-346.17371	-138.66333	584.51819	-369.82336	20.95028	586.45343	-385.27466	-49.36826	545.26813	570.84399	105.80784	540.83417	556.56299	
1736	17.350	-253.73235	48.31507	-238.01981	171.88385	10.47046	-271.00497	-133.10393	18.71533	403.32025	169.60550	27.03669	355.49429	-171.91933	1215.23376	-348.83218	-139.83327	583.93182	-371.38641	19.89782	585.88794	-386.64038	-51.90759	545.75970	569.56580	103.48505	541.20105	555.40619	
1737	17.360	-255.79633	41.22712	-238.04152	170.95210	9.71756	-271.16309	-134.09340	19.10400	402.82693	168.88792	28.02927	352.22333	-172.74609	1214.28345	-351.42392	-141.23201	583.02832	-372.95361	18.65357	585.03912	-387.79083	-54.29233	546.34430	568.16132	100.51637	541.55188	554.32874	
1738	17.370	-258.46384	34.84508	-238.69182	170.16911	9.30081	-271.35181	-134.77757	19.45012	402.66135	168.25594	25.41407	352.59433	-173.51341	1213.51819	-353.89050	-142.47348	582.04468	-374.67798	17.68508	584.03857	-389.54874	-57.06316	547.60107	566.76733	98.20792	542.85846	553.24738	
1739	17.380	-260.21719	28.14300	-239.68169	169.30983	8.66788	-271.46704	-135.57129	20.30355	402.48361	168.50345	27.73788	352.01669	-174.32004	1213.00183	-356.56546	-143.67000	580.58771	-376.24332	16.90044	582.67017	-390.92352	-60.14343	549.50299	565.47253	94.57097	544.99731	551.48419	
1740	17.390	-261.20700	21.06523	-240.52725	168.81360	8.27700	-271.75803	-136.45329	21.30779	402.04559	167.11166	28.88634	352.02795	-175.40213	1212.84692	-360.29376	-144.98318	579.53320	-377.94815	15.67480	581.57965	-392.34103	-62.52308	551.72852	563.91577	92.66662	547.10828	551.13971	
1741	17.400	-261.47717	8.49799	-241.52968	168.31531	8.04360	-271.85770	-137.09042	22.17390	401.57684	166.32755	29.86912	352.43448	-177.83197	1211.70422	-364.91125	-146.40912	578.76904	-379.83487	13.12416	580.60974	-393.01578	-65.32565	553.51001	562.39832	90.02851	549.09314	549.58246	
1742	17.410	-265.84271	7.03547	-244.20308	167.18694	7.39981	-272.44571	-137.39680	22.46219	401.18390	165.94791	30.30789	352.11746	-180.51784	1210.21436	-369.95135	-147.49199	579.41321	-381.30673	12.76103	580.64056	-394.61426	-67.92408	554.88391	561.26703	87.92402	549.85193	548.77606	
1743	17.420	-266.88208	7.69912	-242.25243	165.25153	8.36901	-273.39087	-139.10594	24.14651	400.41714	164.43030	30.84124	351.20917	-183.08994	1208.94287	-373.65942	-148.54190	580.56287	-382.71027	11.15631	581.30035	-395.64731	-70.73543	556.38782	559.95276	85.06616	550.99384	547.66656	
1744	17.430	-265.74338	6.53005	-243.53236	160.06090	10.88790	-270.29071	-140.15289	28.42427	400.90576	163.17476	30.42461	350.40115	-183.54338	1208.80713	-376.13300	-149.68513	581.34283	-384.25925	10.20126	582.56091	-397.51385	-73.12450	557.03052	558.58276	82.68141	552.46326	546.42560	
1745	17.440	-266.06216	6.89603	-244.97958	154.71884	15.10336	-266.12741	-138.73875	32.33193	403.61621	162.98033	31.48465	349.75500	-182.51160	1210.69995	-377.25180	-150.89935	580.98004	-385.88742	9.04538	582.46381	-398.79745	-75.92985	559.05139	556.93372	80.28467	554.89044	545.02216	
1746	17.450	-266.96701	6.45759	-243.78273	151.19135	23.80664	-263.94489	-137.22386	43.26173	404.70746	162.71419	32.34659	349.97128	-181.58534	1213.45325	-377.97089	-152.01808	580.29816	-387.36499	7.61019	581.84668	-400.13388	-77.97840	561.15289	555.56903	77.75719	556.77100	543.51282	
1747	17.460	-267.38260	5.74758	-244.81186	149.36598	34.01661	-263.17920	-137.92218	54.40010	404.48346	161.63684	32.70459	349.33191	-181.83257	1214.72644	-379.26318	-153.64201	579.42010	-388.63306	6.41451	580.72687	-401.40137	-79.62498	562.91840	554.50940	75.96538	558.40033	542.60907	
1748	17.470	-267.72763	4.80975	-244.69984	148.52049	45.76947	-263.90543	-140.51981	67.12973	403.85663	161.57608	33.20189	349.30603	-182.79813	1213.57605	-381.26495	-155.35954	578.54132	-389.44293	4.73283	579.69928	-401.90280	-81.29518	564.15277	553.64136	74.07069	559.35602	542.01440	
1749	17.480	-268.18271	4.08099	-244.89804	147.32956	58.45494	-265.86252	-146.50360	79.93909	401.36652	161.40852	33.44534	349.06448	-185.40938	1211.02515	-384.45258	-156.65297	577.66315	-390.11914	3.01409	578.82983	-402.45493	-82.36461	564.66730	553.16711	73.47580	559.92761	541.42572	
1750	17.490	-268.67551	3.73943	-244.93576	146.21027	71.54063	-267.99924	-152.68701	91.99614	398.42078	161.02406	34.04357	348.83441	-187.71094	1208.85181	-388.19116	-157.61664	576.89600	-390.31766	1.81989	578.15759	-403.54523	-83.61063	565.45923	552.54889	72.62197	560.48438	540.75360	
1751	17.500	-269.44370	3.32561	-245.11682	144.11996	83.87850	-269.89227	-160.15404	106.21918	394.77011	160.70102	34.70439	348.56339	-189.75246	1206.55933	-391.08313	-159.56242	576.13220	-391.04468	0.61077	576.68317	-403.93445	-84.33091	566.57477	552.00098	71.55489	561.17676	540.40912	
1752	17.510	-269.96628	2.47809	-245.12875	141.81007	95.91607	-271.67792	-166.87701	119.05954	392.08044	160.38908	35.09064	348.27667	-191.55884	1205.54712	-392.57013	-160.59154	574.44629	-391.37650	-1.16724	575.35229	-404.54413	-85.42422	567.30823	551.20844	70.43198	562.48669	539.41962	
1753	17.520	-270.20755	1.63177	-245.40675	139.21605	106.87915	-272.69678	-171.45578	131.43219	390.19424	160.25343	35.59895	348.06564	-192.97771	1204.76099	-394.38864	-162.36877	572.95282	-392.04440	-2.76922	573.73962	-404.74384	-86.11866	568.78998	550.84210	69.76826	563.48511	539.14063	
1754	17.530	-270.50729	1.24692	-245.45523	134.82538	116.78371	-274.39960	-175.13342	143.17921	388.00464	160.04546	36.38540	347.69635	-194.68646	1203.81714	-395.64496	-163.75000	571.36444	-392.75726	-3.09682	572.53314	-405.86084	-87.43219	569.29120	550.33911	67.87128	564.41223	538.32654	
1755	17.540	-270.63828	0.77573	-245.54274	132.18143	125.66035	-275.51532	-178.16560	153.32362	385.89493	160.09026	36.86509	347.45886	-195.93376	1202.80859	-396.80527	-164.98532	570.03314	-392.92636	-5.14198	571.01031	-406.27756	-88.50867	570.33716	549.89160	67.72105	565.49402	538.12018	
1756	17.550	-270.76254	0.34809	-245.64420	129.84036	133.03529	-276.84329	-181.41548	159.89555	384.94037	159.96109	37.25030	347.41095	-197.65646	1201.68115	-398.58383	-166.39182	569.03577	-393.31421	-6.89059	569.55389	-406.27332	-89.13699	571.28912	549.27417	66.05457	566.10376	537.23950	
1757	17.560	-270.99982	0.10109	-245.85716	127.67039	137.54196	-277.45078	-185.92154	164.40549	383.29211	159.89612	37.74829	347.04874	-198.41055	1199.84888	-400.84119	-167.40819	567.69690	-393.24142	-8.38179	568.62006	-406.26486	-89.81988	571.91821	549.70490	65.22114	566.70447	536.83899	
1758	17.570	-270.94226	-0.87859	-245.89919	123.97892	138.63528	-278.26779	-191.12616	166.14755	381.98065	160.05038	38.26490	346.74719	-199.30704	1198.31116	-402.59210	-169.36137	566.95813	-393.46127	-8.56902	567.93860	-406.95874	-90.77351	572.03040	548.78369	64.52690	566.53583	535.91705	
1759	17.580	-271.18451	-1.42909	-245.88190	121.26851	136.58212	-278.15610	-196.46469	165.67487	381.12405	159.92877	38.70581	346.33694	-200.25000	1197.27393	-403.97806	-170.68028	566.08160	-393.57681	-11.01213	566.84656	-406.90985	-91.40475	572.51569	548.89191	63.80609	567.39294	536.27393	
